<svg width="24" height="22" viewBox="0 0 24 22" fill="none" xmlns="http://www.w3.org/2000/svg">
<path d="M19.3459 17.24C18.1029 16.815 17.8689 16.729 17.2989 16.48C14.8459 15.413 13.8539 14.105 14.5289 12.4C14.6709 12.04 14.8059 11.752 15.1399 11.093L15.1519 11.069C15.4309 10.519 15.5379 10.297 15.6639 10.007C15.7274 9.86033 15.7841 9.71084 15.8339 9.559C16.0249 8.984 16.1069 8.512 16.2149 7.386L16.2199 7.333L16.2249 7.281C16.5929 3.457 16.0779 2.037 13.9759 1.308C13.3399 1.09247 12.6714 0.988605 11.9999 1.001H11.9859C11.7149 0.997002 11.4419 1.011 11.1719 1.045C10.7719 1.095 10.3839 1.183 10.0229 1.308C7.92194 2.038 7.40694 3.458 7.77594 7.282L7.77994 7.323L7.78394 7.366C7.89194 8.503 7.97394 8.979 8.16594 9.559C8.21594 9.712 8.27294 9.861 8.33594 10.007C8.46194 10.297 8.56994 10.519 8.84794 11.068L8.85994 11.093C9.19394 11.751 9.32994 12.04 9.47194 12.4C10.1459 14.105 9.15394 15.413 6.70094 16.48C6.13094 16.729 5.89594 16.816 4.65494 17.24C2.76594 17.888 1.82494 18.746 1.53794 20.056L1.53694 20.068C1.66894 20.105 1.83994 20.144 2.04494 20.186C2.85727 20.3402 3.6752 20.4633 4.49694 20.555C6.81494 20.829 9.51094 21 12.0019 21C14.4929 21 17.1879 20.83 19.5049 20.555C20.4949 20.438 21.3509 20.308 21.9549 20.185C22.1599 20.145 22.3299 20.105 22.4619 20.069C22.1579 18.731 21.2179 17.883 19.3459 17.24ZM14.3039 0.364002C16.9509 1.281 17.6269 3.147 17.2209 7.377L17.2159 7.429L17.2109 7.482C17.0959 8.676 17.0029 9.213 16.7839 9.873C16.7239 10.055 16.6559 10.233 16.5809 10.405C16.4459 10.717 16.3309 10.955 16.0439 11.522L16.0319 11.545C15.7109 12.179 15.5869 12.443 15.4579 12.767C15.0349 13.839 15.6749 14.683 17.6979 15.563C18.2379 15.798 18.4509 15.877 19.6699 16.293C21.8619 17.046 23.0689 18.148 23.4549 19.943L23.4999 20.363C23.4999 21.003 22.4839 21.209 19.6219 21.548C17.0925 21.8428 14.5484 21.9937 12.0019 22C9.45476 21.9937 6.91001 21.8427 4.37994 21.548C1.51594 21.209 0.499936 21.004 0.502936 20.306L0.552936 19.893C0.932936 18.147 2.13994 17.045 4.33094 16.293C5.54794 15.877 5.76294 15.798 6.30194 15.563C8.32494 14.683 8.96494 13.839 8.54194 12.767C8.41394 12.443 8.28894 12.177 7.96794 11.545L7.95594 11.52C7.76475 11.1543 7.58566 10.7825 7.41894 10.405C7.34328 10.2308 7.27554 10.0533 7.21594 9.873C6.99594 9.207 6.90294 8.666 6.78794 7.461L6.78394 7.418L6.77994 7.377C6.37194 3.15 7.04994 1.281 9.69494 0.364002C10.134 0.212571 10.5879 0.10799 11.0489 0.0520022C11.3619 0.0140022 11.6789 -0.00399778 11.9929 0.00100222C12.7929 -0.00899778 13.5879 0.114002 14.3039 0.364002Z" fill="#2B2D42"/>
</svg>
