<svg width="20" height="24" viewBox="0 0 20 24" fill="none" xmlns="http://www.w3.org/2000/svg">
<path d="M10 0.0999756C12.9 0.0999756 14.9 1.49998 14.9 3.89998V4.49998H18.7V9.59998C18.7 14.3 20.8 22.9 19.2 22.9C18.5 22.9 14.2 24 10 24C5.40004 24 0.800039 22.9 0.800039 22.9C-0.699961 22.9 1.30004 14.2 1.30004 9.59998V4.39998H5.10004V3.79998C5.10004 1.39998 7.10004 0.0999756 10 0.0999756ZM17.6 5.49998H14.9V7.69998H13.8V5.49998H6.20004V7.69998H5.10004V5.49998H2.40004V9.49998C2.40004 10.8 2.30004 12.4 2.00004 14.8L1.90004 15.7C1.50004 18.7 1.40004 19.6 1.40004 20.7V21.9C2.20004 22 3.00004 22.2 3.80004 22.3C5.90004 22.6 8.00004 22.8 9.90004 22.8H10.4C12 22.8 13.7 22.6 15.6 22.3C15.8 22.3 17.6 21.9 18.5 21.8V20.4C18.5 19.4 18.3 18.5 18 15.7C18 15.4 17.9 15.1 17.9 14.8C17.6 12.4 17.5 10.8 17.5 9.49998V5.49998H17.6ZM10 1.19998C7.70004 1.19998 6.20004 2.19998 6.20004 3.79998V4.39998H13.8V3.79998C13.8 2.09998 12.3 1.19998 10 1.19998Z" fill="#2B2D42"/>
</svg>
